<svg width="40" height="40" viewBox="0 0 40 40" fill="none" xmlns="http://www.w3.org/2000/svg">
<path d="M15.9 26.5332V17.6333L13.4 20.4166" stroke="#F5FDFF" stroke-width="2" stroke-linecap="round" stroke-linejoin="round"/>
<path d="M16.7 7.44987L20 3.33325" stroke="#F5FDFF" stroke-width="2" stroke-linecap="round" stroke-linejoin="round"/>
<path d="M8.18338 12.9999C6.33338 15.4666 5.18335 18.5166 5.18335 21.8499C5.18335 30.0332 11.8167 36.6666 20 36.6666C28.1834 36.6666 34.8167 30.0332 34.8167 21.8499C34.8167 13.6666 28.1834 7.0332 20 7.0332C18.8667 7.0332 17.7667 7.18329 16.7 7.43329" stroke="#F5FDFF" stroke-width="2" stroke-linecap="round" stroke-linejoin="round"/>
<path d="M23.3333 17.6333C25.1667 17.6333 26.6667 19.1333 26.6667 20.9666V23.2166C26.6667 25.0499 25.1667 26.5499 23.3333 26.5499C21.5 26.5499 20 25.0499 20 23.2166V20.9666C20 19.1166 21.5 17.6333 23.3333 17.6333Z" stroke="#F5FDFF" stroke-width="2" stroke-linecap="round" stroke-linejoin="round"/>
</svg>
