<svg width="41" height="40" viewBox="0 0 41 40" fill="none" xmlns="http://www.w3.org/2000/svg">
<path d="M23.8542 7.44987L20.5542 3.33325" stroke="#F5FDFF" stroke-width="2" stroke-linecap="round" stroke-linejoin="round"/>
<path d="M32.3709 12.9999C34.2209 15.4666 35.3709 18.5166 35.3709 21.8499C35.3709 30.0332 28.7376 36.6666 20.5542 36.6666C12.3709 36.6666 5.73755 30.0332 5.73755 21.8499C5.73755 13.6666 12.3709 7.0332 20.5542 7.0332C21.6876 7.0332 22.7876 7.18329 23.8543 7.43329" stroke="#F5FDFF" stroke-width="2" stroke-linecap="round" stroke-linejoin="round"/>
<path d="M16.4542 26.5332V17.6333L13.9542 20.4166" stroke="#F5FDFF" stroke-width="2" stroke-linecap="round" stroke-linejoin="round"/>
<path d="M23.8875 17.6333C25.7209 17.6333 27.2209 19.1333 27.2209 20.9666V23.2166C27.2209 25.0499 25.7209 26.5499 23.8875 26.5499C22.0542 26.5499 20.5542 25.0499 20.5542 23.2166V20.9666C20.5542 19.1166 22.0542 17.6333 23.8875 17.6333Z" stroke="#F5FDFF" stroke-width="2" stroke-linecap="round" stroke-linejoin="round"/>
</svg>
