<svg width="112" height="112" viewBox="0 0 112 112" fill="none" xmlns="http://www.w3.org/2000/svg">
<g clip-path="url(#clip0_83_1202)">
<path d="M56 112C86.9279 112 112 86.9279 112 56C112 25.0721 86.9279 0 56 0C25.0721 0 0 25.0721 0 56C0 86.9279 25.0721 112 56 112Z" fill="#F15249"/>
<path d="M32.5046 81.2618L62.7128 111.47C88.1513 108.467 108.29 88.5047 111.47 63.0663L81.0851 32.6814L32.5046 81.2618Z" fill="#AD0E0E"/>
<path d="M82.4985 68.3659C84.9716 70.8391 84.9716 75.0788 82.4985 77.552L77.5521 82.4984C75.0789 84.9715 70.8392 84.9715 68.366 82.4984L29.5016 43.634C27.0284 41.1608 27.0284 36.9211 29.5016 34.4479L34.6246 29.3249C37.0978 26.8517 41.3376 26.8517 43.8108 29.3249L82.4985 68.3659Z" fill="white"/>
<path d="M62.0064 47.6971L47.6973 62.0063L68.366 82.4984C70.8392 84.9716 75.079 84.9716 77.5522 82.4984L82.6752 77.3754C85.1484 74.9022 85.1484 70.6624 82.6752 68.1893L62.0064 47.6971Z" fill="#D6D6D6"/>
<path d="M68.366 29.5016C70.8392 27.0284 75.0789 27.0284 77.5521 29.5016L82.6751 34.6246C85.1483 37.0978 85.1483 41.3376 82.6751 43.8108L43.6341 82.4985C41.1609 84.9716 36.9212 84.9716 34.448 82.4985L29.5016 77.5521C27.0284 75.0789 27.0284 70.8392 29.5016 68.366L68.366 29.5016Z" fill="white"/>
</g>
<defs>
<clipPath id="clip0_83_1202">
<rect width="112" height="112" fill="white"/>
</clipPath>
</defs>
</svg>
