<svg width="78" height="78" viewBox="0 0 78 78" fill="none" xmlns="http://www.w3.org/2000/svg">
<g clip-path="url(#clip0_83_1193)">
<path d="M39 0C17.4616 0 0 17.4555 0 39C0 60.5445 17.4616 78 39 78C60.5384 78 78 60.5338 78 39C78 17.4662 60.5384 0 39 0Z" fill="url(#paint0_linear_83_1193)"/>
<path d="M3.62183e-05 38.9999C-0.00876761 45.4463 1.58757 51.7934 4.645 57.4686C8.54024 58.6122 12.5794 59.1914 16.639 59.1885C40.0847 59.1885 59.0911 40.1821 59.0911 16.7364C59.0946 12.6124 58.4973 8.50985 57.3178 4.55806C51.6798 1.55494 45.388 -0.0107059 39 -6.82228e-05C17.4617 -6.82228e-05 3.62183e-05 17.4555 3.62183e-05 38.9999Z" fill="#3FADD5"/>
<path d="M61.2422 32.5376L37.801 57.1548C37.1622 57.8249 36.3947 58.3593 35.5444 58.7257C34.6942 59.0922 33.7787 59.2833 32.8529 59.2876H32.8224C31.9017 59.2878 30.9904 59.1031 30.1425 58.7443C29.2945 58.3855 28.5274 57.86 27.8865 57.199L15.4476 44.3868C14.8049 43.7417 14.2968 42.9754 13.9526 42.1322C13.6085 41.2891 13.4352 40.3861 13.4429 39.4755C13.4505 38.5649 13.639 37.6649 13.9973 36.8277C14.3556 35.9905 14.8766 35.2328 15.5301 34.5986C16.1836 33.9644 16.9565 33.4662 17.804 33.1332C18.6516 32.8001 19.5568 32.6386 20.4673 32.6582C21.3777 32.6778 22.2752 32.878 23.1076 33.2472C23.94 33.6164 24.6908 34.1473 25.3165 34.809L32.7737 42.4902L51.2819 23.0542C51.9019 22.3893 52.6476 21.854 53.4758 21.4792C54.304 21.1044 55.1983 20.8976 56.1069 20.8706C57.0156 20.8436 57.9206 20.997 58.7696 21.322C59.6185 21.647 60.3947 22.1371 61.053 22.764C61.7114 23.3908 62.2389 24.142 62.6052 24.974C62.9714 25.806 63.169 26.7024 63.1866 27.6113C63.2042 28.5202 63.0414 29.4235 62.7076 30.2691C62.3739 31.1147 61.8758 31.8857 61.2422 32.5376Z" fill="white"/>
</g>
<defs>
<linearGradient id="paint0_linear_83_1193" x1="8.59495" y1="5.6875" x2="76.0807" y2="7.55967" gradientUnits="userSpaceOnUse">
<stop stop-color="#B4DF86"/>
<stop offset="1" stop-color="#84C743"/>
</linearGradient>
<clipPath id="clip0_83_1193">
<rect width="78" height="78" fill="white"/>
</clipPath>
</defs>
</svg>
