<svg width="12" height="12" viewBox="0 0 12 12" fill="none" xmlns="http://www.w3.org/2000/svg">
<path d="M10.8408 5.43805L10.1208 9.25768L10.3721 9.3822L10.68 9.63125C10.6868 9.63805 10.6958 9.64484 10.7049 9.64937C10.8679 9.77163 10.9743 9.96636 10.9743 10.186C10.9743 10.5556 10.6667 10.8516 10.3087 10.8516H10.243C10.2543 10.8516 10.2656 10.8516 10.277 10.8494H2.07395C2.08527 10.8516 2.0966 10.8516 2.10792 10.8516H2.04225C1.70222 10.8516 1.37886 10.5742 1.37886 10.186C1.37886 9.81691 1.67546 9.51804 2.04225 9.51804H2.28L1.81132 7.02296C1.90187 6.13993 1.64151 5.2139 1.03018 4.57993C1.19999 4.3422 1.50113 4.12485 1.50113 4.12485L1.81584 4.37843L1.86565 4.41692C1.99245 4.52107 2.07169 4.68182 2.07169 4.85843C2.07169 4.99201 2.02867 5.11428 1.95169 5.2139L3.7766 6.76484L5.83697 2.80484C5.60604 2.68484 5.44528 2.43805 5.44528 2.1573C5.44528 1.75427 6.30565 1.32861 6.30565 1.32861L6.58188 1.55276L6.59547 1.56183L6.67018 1.62295C6.81509 1.75654 6.90566 1.94672 6.90566 2.1573C6.90566 2.43805 6.7449 2.68484 6.5117 2.80484V2.80711L8.5766 6.76484L10.3992 5.2139C10.3223 5.11428 10.277 4.99201 10.277 4.85843C10.277 4.54598 10.8679 4.1271 10.8679 4.1271L11.2234 4.41239L11.2324 4.41919C11.357 4.52559 11.434 4.68409 11.434 4.85843C11.434 5.17767 11.1758 5.43805 10.8566 5.43805H10.8408Z" fill="#F16522"/>
<path d="M8.22623 6.48379L5.82599 1.87866V9.38243H6.959L8.22623 6.48379Z" fill="url(#paint0_linear_15_336)"/>
<path d="M5.82598 1.87866L3.42772 6.48379L4.693 9.38243H5.82598V1.87866Z" fill="url(#paint1_linear_15_336)"/>
<path d="M7.54763 8.03494L6.9594 9.38252H5.82626V4.3623L7.54763 8.03494Z" fill="url(#paint2_linear_15_336)"/>
<path d="M7.46029 8.23495L6.9594 9.38244H5.82626V4.95508L7.46029 8.23495Z" fill="url(#paint3_linear_15_336)"/>
<path d="M4.10477 8.03605L5.82628 4.3623V9.38252H4.69342L4.10477 8.03605Z" fill="url(#paint4_linear_15_336)"/>
<path d="M5.82548 4.95557V9.38233H4.69191L4.19177 8.23506L5.82548 4.95557Z" fill="url(#paint5_linear_15_336)"/>
<path d="M10.6245 4.44409L8.22622 6.48388L6.95898 9.38252H8.41594L9.52022 6.44632L10.6245 4.44409Z" fill="url(#paint6_linear_15_336)"/>
<path d="M10.6245 4.44388L9.52023 6.4461L8.41595 9.38231H9.6949L10.6245 4.44388Z" fill="url(#paint7_linear_15_336)"/>
<path d="M9.52022 6.44604L7.54828 8.03677L7.54764 8.03578L6.95898 9.38225H8.41595L9.52022 6.44604Z" fill="url(#paint8_linear_15_336)"/>
<path d="M9.41214 6.72949L8.41522 9.38197H6.95905L7.46086 8.23496L9.41214 6.72949Z" fill="url(#paint9_linear_15_336)"/>
<path d="M1.02759 4.44409L3.4278 6.48388L4.69308 9.38252H3.23612L2.13185 6.44632L1.02759 4.44409Z" fill="url(#paint10_linear_15_336)"/>
<path d="M1.02751 4.44388L2.13177 6.4461L3.23605 9.38231H1.9571L1.02751 4.44388Z" fill="url(#paint11_linear_15_336)"/>
<path d="M2.13177 6.44604L4.10371 8.03677L4.10435 8.03578L4.69301 9.38225H3.23605L2.13177 6.44604Z" fill="url(#paint12_linear_15_336)"/>
<path d="M2.23993 6.72974L3.23685 9.38221H4.69302L4.1912 8.2352L2.23993 6.72974Z" fill="url(#paint13_linear_15_336)"/>
<path d="M10.624 9.90321C10.624 10.2864 10.3071 10.5689 9.95835 10.5689H1.7134C1.34631 10.5689 1.04773 10.2703 1.04773 9.90321C1.04773 9.71966 1.1236 9.55325 1.24351 9.43333C1.36343 9.31341 1.52985 9.23755 1.7134 9.23755H9.95835C10.3254 9.23755 10.624 9.53611 10.624 9.90321Z" fill="url(#paint14_linear_15_336)"/>
<path d="M10.6247 9.90374C10.6247 10.2713 10.319 10.5699 9.95854 10.5699H9.8928C10.2436 10.5699 10.548 10.2975 10.548 9.94538C10.548 9.60132 10.2544 9.41067 9.8928 9.41067H1.75819C1.3966 9.41067 1.10296 9.60132 1.10296 9.94538C1.10296 10.1163 1.17526 10.2741 1.2958 10.3859C1.41414 10.4976 1.5763 10.5699 1.75819 10.5699C1.72316 10.5634 1.4587 10.6079 1.22348 10.3727C1.10076 10.2522 1.02844 10.0878 1.02844 9.90374C1.02844 9.53558 1.32647 9.23755 1.69245 9.23755H9.95854C10.3245 9.23755 10.6247 9.53558 10.6247 9.90374Z" fill="#FFFD83"/>
<path d="M5.82599 5.13965C5.88479 6.04936 5.88933 7.79533 5.82599 8.76779C5.76273 7.79657 5.76713 6.05027 5.82599 5.13965Z" fill="url(#paint15_radial_15_336)"/>
<path d="M5.82599 2.52271C5.88479 2.99113 5.88933 3.89009 5.82599 4.39071C5.76274 3.8907 5.76713 2.99158 5.82599 2.52271Z" fill="url(#paint16_radial_15_336)"/>
<path d="M8.41595 9.38249C8.68536 8.84605 9.36682 7.0389 9.52023 6.44629C9.24479 6.99379 8.56666 8.80201 8.41595 9.38249Z" fill="url(#paint17_radial_15_336)"/>
<path d="M10.5201 4.6333C10.3158 5.11347 9.92965 5.81722 9.62463 6.25695C9.83362 5.76483 10.2226 5.06279 10.5201 4.6333Z" fill="url(#paint18_radial_15_336)"/>
<path d="M3.23162 9.37444C2.96222 8.838 2.28076 7.03084 2.12735 6.43823C2.29312 6.76773 3.08092 8.79395 3.23162 9.37444Z" fill="url(#paint19_radial_15_336)"/>
<path d="M1.12747 4.62524C1.33175 5.10541 1.71793 5.80916 2.02295 6.2489C1.81396 5.75677 1.42495 5.05473 1.12747 4.62524Z" fill="url(#paint20_radial_15_336)"/>
<path d="M9.6943 9.38184L10.4501 4.82326L8.10663 6.75665L5.82551 2.35203L3.54851 6.75665L1.20095 4.82326L1.95671 9.38184L1.02701 4.44338L3.42771 6.48376L5.82551 1.87817L8.22623 6.48378L10.624 4.44338L9.6943 9.38184Z" fill="#FEF328"/>
<path d="M5.82544 2.60791C6.22846 2.60791 6.55517 2.2812 6.55517 1.87817C6.55517 1.47515 6.22846 1.14844 5.82544 1.14844C5.42242 1.14844 5.0957 1.47515 5.0957 1.87817C5.0957 2.2812 5.42242 2.60791 5.82544 2.60791Z" fill="url(#paint21_linear_15_336)"/>
<path d="M5.82544 2.52276C6.15506 2.52276 6.42227 2.25555 6.42227 1.92593C6.42227 1.59631 6.15506 1.3291 5.82544 1.3291C5.49582 1.3291 5.22861 1.59631 5.22861 1.92593C5.22861 2.25555 5.49582 2.52276 5.82544 2.52276Z" fill="url(#paint22_linear_15_336)"/>
<path d="M10.5068 5.15719C10.8264 5.15719 11.0855 4.89809 11.0855 4.57847C11.0855 4.25886 10.8264 3.99976 10.5068 3.99976C10.1872 3.99976 9.92807 4.25886 9.92807 4.57847C9.92807 4.89809 10.1872 5.15719 10.5068 5.15719Z" fill="url(#paint23_linear_15_336)"/>
<path d="M10.5068 5.08948C10.7681 5.08948 10.98 4.87762 10.98 4.61627C10.98 4.35493 10.7681 4.14307 10.5068 4.14307C10.2454 4.14307 10.0336 4.35493 10.0336 4.61627C10.0336 4.87762 10.2454 5.08948 10.5068 5.08948Z" fill="url(#paint24_linear_15_336)"/>
<path d="M1.14476 5.15719C1.46437 5.15719 1.72347 4.89809 1.72347 4.57847C1.72347 4.25886 1.46437 3.99976 1.14476 3.99976C0.825141 3.99976 0.56604 4.25886 0.56604 4.57847C0.56604 4.89809 0.825141 5.15719 1.14476 5.15719Z" fill="url(#paint25_linear_15_336)"/>
<path d="M1.14475 5.08948C1.40609 5.08948 1.61795 4.87762 1.61795 4.61627C1.61795 4.35493 1.40609 4.14307 1.14475 4.14307C0.883402 4.14307 0.671539 4.35493 0.671539 4.61627C0.671539 4.87762 0.883402 5.08948 1.14475 5.08948Z" fill="url(#paint26_linear_15_336)"/>
<defs>
<linearGradient id="paint0_linear_15_336" x1="1.02567" y1="5.63048" x2="10.6225" y2="5.63048" gradientUnits="userSpaceOnUse">
<stop stop-color="#FEF328"/>
<stop offset="0.886487" stop-color="#FF7F02"/>
</linearGradient>
<linearGradient id="paint1_linear_15_336" x1="1.02951" y1="5.63048" x2="10.6266" y2="5.63048" gradientUnits="userSpaceOnUse">
<stop offset="0.136937" stop-color="#ED971A"/>
<stop offset="0.848648" stop-color="#FEF328"/>
</linearGradient>
<linearGradient id="paint2_linear_15_336" x1="5.82633" y1="6.87245" x2="7.54776" y2="6.87245" gradientUnits="userSpaceOnUse">
<stop stop-color="#F16522"/>
<stop offset="1" stop-color="#ED971A"/>
</linearGradient>
<linearGradient id="paint3_linear_15_336" x1="8.96263" y1="7.16876" x2="2.68957" y2="7.16876" gradientUnits="userSpaceOnUse">
<stop stop-color="#FEF328"/>
<stop offset="0.886487" stop-color="#FF7F02"/>
</linearGradient>
<linearGradient id="paint4_linear_15_336" x1="4.10491" y1="6.87245" x2="5.82634" y2="6.87245" gradientUnits="userSpaceOnUse">
<stop stop-color="#F16522"/>
<stop offset="1" stop-color="#ED971A"/>
</linearGradient>
<linearGradient id="paint5_linear_15_336" x1="5.82567" y1="7.16886" x2="4.19186" y2="7.16886" gradientUnits="userSpaceOnUse">
<stop stop-color="#FEF328"/>
<stop offset="0.120245" stop-color="#FEE825"/>
<stop offset="0.330162" stop-color="#FCCB1E"/>
<stop offset="0.604835" stop-color="#FB9D13"/>
<stop offset="0.930612" stop-color="#F85C04"/>
<stop offset="0.942343" stop-color="#F85A03"/>
</linearGradient>
<linearGradient id="paint6_linear_15_336" x1="1.02769" y1="6.91321" x2="10.6245" y2="6.91321" gradientUnits="userSpaceOnUse">
<stop offset="0.403604" stop-color="#FEF328"/>
<stop offset="0.942342" stop-color="#FCA81D"/>
</linearGradient>
<linearGradient id="paint7_linear_15_336" x1="3.33827" y1="5.93398" x2="10.2161" y2="7.02326" gradientUnits="userSpaceOnUse">
<stop offset="0.699099" stop-color="#F85A03"/>
<stop offset="0.950781" stop-color="#FB9B19"/>
<stop offset="1" stop-color="#FCA81D"/>
</linearGradient>
<linearGradient id="paint8_linear_15_336" x1="6.95909" y1="7.91415" x2="9.5203" y2="7.91415" gradientUnits="userSpaceOnUse">
<stop stop-color="#F16522"/>
<stop offset="1" stop-color="#ED971A"/>
</linearGradient>
<linearGradient id="paint9_linear_15_336" x1="6.95909" y1="8.05582" x2="9.4123" y2="8.05582" gradientUnits="userSpaceOnUse">
<stop stop-color="#FEF328"/>
<stop offset="0.20877" stop-color="#FEE826"/>
<stop offset="0.573088" stop-color="#FDCB22"/>
<stop offset="0.942342" stop-color="#FCA81D"/>
</linearGradient>
<linearGradient id="paint10_linear_15_336" x1="10.6246" y1="6.91321" x2="1.02755" y2="6.91321" gradientUnits="userSpaceOnUse">
<stop stop-color="#FEF328"/>
<stop offset="0.886487" stop-color="#FF7F02"/>
</linearGradient>
<linearGradient id="paint11_linear_15_336" x1="11.9439" y1="6.913" x2="1.02748" y2="6.913" gradientUnits="userSpaceOnUse">
<stop stop-color="#F85A03"/>
<stop offset="1" stop-color="#FCA81D"/>
</linearGradient>
<linearGradient id="paint12_linear_15_336" x1="9.92673" y1="7.91415" x2="2.13171" y2="7.91415" gradientUnits="userSpaceOnUse">
<stop stop-color="#F16522"/>
<stop offset="1" stop-color="#ED971A"/>
</linearGradient>
<linearGradient id="paint13_linear_15_336" x1="4.69315" y1="8.05606" x2="2.23994" y2="8.05606" gradientUnits="userSpaceOnUse">
<stop stop-color="#FEF328"/>
<stop offset="0.20877" stop-color="#FEE826"/>
<stop offset="0.573088" stop-color="#FDCB22"/>
<stop offset="0.942342" stop-color="#FCA81D"/>
</linearGradient>
<linearGradient id="paint14_linear_15_336" x1="5.83607" y1="9.23748" x2="5.83607" y2="10.5688" gradientUnits="userSpaceOnUse">
<stop stop-color="#F16522"/>
<stop offset="1" stop-color="#ED971A"/>
</linearGradient>
<radialGradient id="paint15_radial_15_336" cx="0" cy="0" r="1" gradientUnits="userSpaceOnUse" gradientTransform="translate(5.82612 6.96112) scale(1.48211 1.28351)">
<stop offset="1e-07" stop-color="#FFFD83"/>
<stop offset="0.174803" stop-color="#FFFD87" stop-opacity="0.825"/>
<stop offset="0.355645" stop-color="#FFFD94" stop-opacity="0.644"/>
<stop offset="0.539299" stop-color="#FFFEA8" stop-opacity="0.461"/>
<stop offset="0.724836" stop-color="#FFFEC5" stop-opacity="0.275"/>
<stop offset="0.910089" stop-color="#FFFFEA" stop-opacity="0.09"/>
<stop offset="1" stop-color="white" stop-opacity="0"/>
</radialGradient>
<radialGradient id="paint16_radial_15_336" cx="0" cy="0" r="1" gradientUnits="userSpaceOnUse" gradientTransform="translate(5.82612 3.49218) scale(1.48211 0.661022)">
<stop offset="1e-07" stop-color="#FFFD83"/>
<stop offset="0.174803" stop-color="#FFFD87" stop-opacity="0.825"/>
<stop offset="0.355645" stop-color="#FFFD94" stop-opacity="0.644"/>
<stop offset="0.539299" stop-color="#FFFEA8" stop-opacity="0.461"/>
<stop offset="0.724836" stop-color="#FFFEC5" stop-opacity="0.275"/>
<stop offset="0.910089" stop-color="#FFFFEA" stop-opacity="0.09"/>
<stop offset="1" stop-color="white" stop-opacity="0"/>
</radialGradient>
<radialGradient id="paint17_radial_15_336" cx="0" cy="0" r="1" gradientUnits="userSpaceOnUse" gradientTransform="translate(8.96831 7.91439) scale(1.10898)">
<stop offset="1e-07" stop-color="#FFFD83"/>
<stop offset="0.174803" stop-color="#FFFD87" stop-opacity="0.825"/>
<stop offset="0.355645" stop-color="#FFFD94" stop-opacity="0.644"/>
<stop offset="0.539299" stop-color="#FFFEA8" stop-opacity="0.461"/>
<stop offset="0.724836" stop-color="#FFFEC5" stop-opacity="0.275"/>
<stop offset="0.910089" stop-color="#FFFFEA" stop-opacity="0.09"/>
<stop offset="1" stop-color="white" stop-opacity="0"/>
</radialGradient>
<radialGradient id="paint18_radial_15_336" cx="0" cy="0" r="1" gradientUnits="userSpaceOnUse" gradientTransform="translate(10.0725 5.44506) scale(0.655472)">
<stop offset="1e-07" stop-color="#FFFD83"/>
<stop offset="0.174803" stop-color="#FFFD87" stop-opacity="0.825"/>
<stop offset="0.355645" stop-color="#FFFD94" stop-opacity="0.644"/>
<stop offset="0.539299" stop-color="#FFFEA8" stop-opacity="0.461"/>
<stop offset="0.724836" stop-color="#FFFEC5" stop-opacity="0.275"/>
<stop offset="0.910089" stop-color="#FFFFEA" stop-opacity="0.09"/>
<stop offset="1" stop-color="white" stop-opacity="0"/>
</radialGradient>
<radialGradient id="paint19_radial_15_336" cx="0" cy="0" r="1" gradientUnits="userSpaceOnUse" gradientTransform="translate(2.67942 7.90623) rotate(180) scale(1.10898)">
<stop offset="1e-07" stop-color="#FFFD83"/>
<stop offset="0.174803" stop-color="#FFFD87" stop-opacity="0.825"/>
<stop offset="0.355645" stop-color="#FFFD94" stop-opacity="0.644"/>
<stop offset="0.539299" stop-color="#FFFEA8" stop-opacity="0.461"/>
<stop offset="0.724836" stop-color="#FFFEC5" stop-opacity="0.275"/>
<stop offset="0.910089" stop-color="#FFFFEA" stop-opacity="0.09"/>
<stop offset="1" stop-color="white" stop-opacity="0"/>
</radialGradient>
<radialGradient id="paint20_radial_15_336" cx="0" cy="0" r="1" gradientUnits="userSpaceOnUse" gradientTransform="translate(1.57518 5.43713) rotate(180) scale(0.655472)">
<stop offset="1e-07" stop-color="#FFFD83"/>
<stop offset="0.174803" stop-color="#FFFD87" stop-opacity="0.825"/>
<stop offset="0.355645" stop-color="#FFFD94" stop-opacity="0.644"/>
<stop offset="0.539299" stop-color="#FFFEA8" stop-opacity="0.461"/>
<stop offset="0.724836" stop-color="#FFFEC5" stop-opacity="0.275"/>
<stop offset="0.910089" stop-color="#FFFFEA" stop-opacity="0.09"/>
<stop offset="1" stop-color="white" stop-opacity="0"/>
</radialGradient>
<linearGradient id="paint21_linear_15_336" x1="5.0957" y1="1.87817" x2="6.5554" y2="1.87817" gradientUnits="userSpaceOnUse">
<stop stop-color="#FEF328"/>
<stop offset="0.886487" stop-color="#FF7F02"/>
</linearGradient>
<linearGradient id="paint22_linear_15_336" x1="5.82566" y1="1.3291" x2="5.82566" y2="2.52299" gradientUnits="userSpaceOnUse">
<stop stop-color="#FEF328"/>
<stop offset="0.886487" stop-color="#FF7F02"/>
</linearGradient>
<linearGradient id="paint23_linear_15_336" x1="9.9283" y1="4.57847" x2="11.0855" y2="4.57847" gradientUnits="userSpaceOnUse">
<stop stop-color="#FEF328"/>
<stop offset="0.886487" stop-color="#FF7F02"/>
</linearGradient>
<linearGradient id="paint24_linear_15_336" x1="10.507" y1="4.14307" x2="10.507" y2="5.08971" gradientUnits="userSpaceOnUse">
<stop stop-color="#FEF328"/>
<stop offset="0.886487" stop-color="#FF7F02"/>
</linearGradient>
<linearGradient id="paint25_linear_15_336" x1="0.56604" y1="4.57847" x2="1.72347" y2="4.57847" gradientUnits="userSpaceOnUse">
<stop stop-color="#FEF328"/>
<stop offset="0.886487" stop-color="#FF7F02"/>
</linearGradient>
<linearGradient id="paint26_linear_15_336" x1="1.14475" y1="4.14307" x2="1.14475" y2="5.08971" gradientUnits="userSpaceOnUse">
<stop stop-color="#FEF328"/>
<stop offset="0.886487" stop-color="#FF7F02"/>
</linearGradient>
</defs>
</svg>
