<svg width="24" height="24" viewBox="0 0 24 24" fill="none" xmlns="http://www.w3.org/2000/svg">
<path d="M17 22H7C6.59 22 6.25 21.66 6.25 21.25C6.25 20.84 6.59 20.5 7 20.5H17C17.41 20.5 17.75 20.84 17.75 21.25C17.75 21.66 17.41 22 17 22Z" fill="#F5FDFF"/>
<path d="M20.35 5.52004L16.35 8.38004C15.82 8.76004 15.06 8.53004 14.83 7.92004L12.94 2.88004C12.62 2.01004 11.39 2.01004 11.07 2.88004L9.17 7.91004C8.94 8.53004 8.19 8.76004 7.66 8.37004L3.66 5.51004C2.86 4.95004 1.8 5.74004 2.13 6.67004L6.29 18.32C6.43 18.72 6.81 18.98 7.23 18.98H16.76C17.18 18.98 17.56 18.71 17.7 18.32L21.86 6.67004C22.2 5.74004 21.14 4.95004 20.35 5.52004ZM14.5 14.75H9.5C9.09 14.75 8.75 14.41 8.75 14C8.75 13.59 9.09 13.25 9.5 13.25H14.5C14.91 13.25 15.25 13.59 15.25 14C15.25 14.41 14.91 14.75 14.5 14.75Z" fill="#F5FDFF"/>
</svg>
