<svg width="16" height="16" viewBox="0 0 16 16" fill="none" xmlns="http://www.w3.org/2000/svg">
<path d="M13.7974 14.4413H2.2026C1.9385 14.4413 1.71948 14.2223 1.71948 13.9582C1.71948 13.6941 1.9385 13.4751 2.2026 13.4751H13.7974C14.0615 13.4751 14.2805 13.6941 14.2805 13.9582C14.2805 14.2223 14.0615 14.4413 13.7974 14.4413Z" fill="#F5FDFF"/>
<path d="M12.5219 2.51137C11.2723 1.26171 10.0484 1.2295 8.7665 2.51137L7.98707 3.2908C7.92265 3.35522 7.89689 3.45828 7.92265 3.54847C8.41221 5.25548 9.77782 6.62109 11.4848 7.11065C11.5106 7.11709 11.5364 7.12353 11.5621 7.12353C11.633 7.12353 11.6974 7.09776 11.7489 7.04623L12.5219 6.2668C13.1596 5.63553 13.4688 5.02358 13.4688 4.40519C13.4753 3.76748 13.1661 3.14909 12.5219 2.51137Z" fill="#F5FDFF"/>
<path d="M10.3254 7.69697C10.1386 7.60678 9.95823 7.5166 9.78431 7.41354C9.64259 7.3298 9.50732 7.23962 9.37205 7.14299C9.26254 7.07213 9.13371 6.96907 9.01132 6.866C8.99844 6.85956 8.95334 6.82091 8.90181 6.76938C8.68924 6.58902 8.4509 6.35712 8.23833 6.09946C8.21901 6.08658 8.1868 6.04149 8.14171 5.98351C8.07729 5.90621 7.96779 5.77738 7.87116 5.62923C7.79386 5.5326 7.70368 5.39089 7.61994 5.24917C7.51688 5.07525 7.4267 4.90133 7.33651 4.72097C7.21827 4.46759 6.88573 4.39233 6.68802 4.59004L3.06576 8.21229C2.98202 8.29603 2.90472 8.45707 2.8854 8.56658L2.53755 11.0337C2.47314 11.4717 2.59553 11.884 2.86607 12.161C3.09797 12.3864 3.42005 12.5088 3.76789 12.5088C3.84519 12.5088 3.92249 12.5024 3.99979 12.4895L6.47335 12.1416C6.58929 12.1223 6.75033 12.045 6.82763 11.9613L10.4559 8.33304C10.6496 8.13929 10.5768 7.80592 10.3254 7.69697Z" fill="#F5FDFF"/>
</svg>
