<svg width="17" height="17" viewBox="0 0 17 17" fill="none" xmlns="http://www.w3.org/2000/svg">
<path d="M4.48674 14.8444C5.63549 14.8444 6.56674 13.9132 6.56674 12.7644C6.56674 11.6157 5.63549 10.6844 4.48674 10.6844C3.33799 10.6844 2.40674 11.6157 2.40674 12.7644C2.40674 13.9132 3.33799 14.8444 4.48674 14.8444Z" stroke="white" stroke-opacity="0.5" stroke-width="1.5" stroke-linecap="round" stroke-linejoin="round"/>
<path d="M14.1934 11.3777V3.24434C14.1934 1.51101 13.1068 1.27101 12.0068 1.57101L7.84677 2.70434C7.08677 2.91101 6.56677 3.51101 6.56677 4.37767V5.82434V6.79767V12.7577" stroke="white" stroke-opacity="0.5" stroke-width="1.5" stroke-linecap="round" stroke-linejoin="round"/>
<path d="M12.1133 13.4577C13.2621 13.4577 14.1933 12.5265 14.1933 11.3777C14.1933 10.229 13.2621 9.29773 12.1133 9.29773C10.9646 9.29773 10.0333 10.229 10.0333 11.3777C10.0333 12.5265 10.9646 13.4577 12.1133 13.4577Z" stroke="white" stroke-opacity="0.5" stroke-width="1.5" stroke-linecap="round" stroke-linejoin="round"/>
<path d="M6.56677 6.52446L14.1934 4.44446" stroke="white" stroke-opacity="0.5" stroke-width="1.5" stroke-linecap="round" stroke-linejoin="round"/>
</svg>
