<svg width="20" height="19" viewBox="0 0 20 19" fill="none" xmlns="http://www.w3.org/2000/svg">
<path d="M10.1582 9.7728C10.1048 9.76517 10.0361 9.76517 9.97505 9.7728C8.63224 9.72702 7.56409 8.62835 7.56409 7.27791C7.56409 5.89695 8.67801 4.77539 10.0666 4.77539C11.4476 4.77539 12.5691 5.89695 12.5691 7.27791C12.5615 8.62835 11.501 9.72702 10.1582 9.7728Z" stroke="white" stroke-opacity="0.5" stroke-width="1.71667" stroke-linecap="round" stroke-linejoin="round"/>
<path d="M15.2089 14.8085C13.8509 16.0521 12.0503 16.8074 10.0666 16.8074C8.08286 16.8074 6.28227 16.0521 4.92419 14.8085C5.00049 14.0913 5.45827 13.3894 6.27464 12.84C8.36516 11.4514 11.7832 11.4514 13.8585 12.84C14.6749 13.3894 15.1326 14.0913 15.2089 14.8085Z" stroke="white" stroke-opacity="0.5" stroke-width="1.71667" stroke-linecap="round" stroke-linejoin="round"/>
<path d="M10.0666 16.8075C14.2803 16.8075 17.6962 13.3916 17.6962 9.17785C17.6962 4.96412 14.2803 1.54822 10.0666 1.54822C5.85285 1.54822 2.43695 4.96412 2.43695 9.17785C2.43695 13.3916 5.85285 16.8075 10.0666 16.8075Z" stroke="white" stroke-opacity="0.5" stroke-width="1.71667" stroke-linecap="round" stroke-linejoin="round"/>
</svg>
